<mxfile host="65bd71144e">
    <diagram id="7OlAM71-rFTA3UEtqhTr" name="Page-1">
        <mxGraphModel dx="2668" dy="433" grid="1" gridSize="10" guides="1" tooltips="1" connect="1" arrows="1" fold="1" page="1" pageScale="1" pageWidth="850" pageHeight="1100" math="0" shadow="0">
            <root>
                <mxCell id="0"/>
                <mxCell id="1" parent="0"/>
                <mxCell id="26" style="edgeStyle=none;html=1;fontColor=#666666;entryX=1;entryY=0.5;entryDx=0;entryDy=0;" edge="1" parent="1" source="2" target="27">
                    <mxGeometry relative="1" as="geometry">
                        <mxPoint x="405" y="179" as="targetPoint"/>
                        <Array as="points">
                            <mxPoint x="375" y="114"/>
                        </Array>
                    </mxGeometry>
                </mxCell>
                <mxCell id="29" value="" style="edgeStyle=none;html=1;fontColor=#666666;" edge="1" parent="1" source="2" target="28">
                    <mxGeometry relative="1" as="geometry"/>
                </mxCell>
                <mxCell id="2" value="App" style="ellipse" vertex="1" parent="1">
                    <mxGeometry x="404.99546875" y="99" width="80" height="30" as="geometry"/>
                </mxCell>
                <mxCell id="3" value="Signup Form" style="rounded=1;" vertex="1" parent="1">
                    <mxGeometry x="149.925546875" y="179" width="80" height="30" as="geometry"/>
                </mxCell>
                <mxCell id="4" value="" style="edgeStyle=elbowEdgeStyle;elbow=vertical;" edge="1" source="2" target="3" parent="1">
                    <mxGeometry relative="1" as="geometry"/>
                </mxCell>
                <mxCell id="5" value="Login/Logout" style="rounded=1;" vertex="1" parent="1">
                    <mxGeometry x="269.925546875" y="179" width="80" height="30" as="geometry"/>
                </mxCell>
                <mxCell id="6" value="" style="edgeStyle=elbowEdgeStyle;elbow=vertical;" edge="1" source="2" target="5" parent="1">
                    <mxGeometry relative="1" as="geometry"/>
                </mxCell>
                <mxCell id="7" value="User profile" style="rounded=1;" vertex="1" parent="1">
                    <mxGeometry x="452.20992187499996" y="179" width="80" height="30" as="geometry"/>
                </mxCell>
                <mxCell id="8" value="" style="edgeStyle=elbowEdgeStyle;elbow=vertical;" edge="1" source="2" target="7" parent="1">
                    <mxGeometry relative="1" as="geometry"/>
                </mxCell>
                <mxCell id="9" value="All Reviews" style="rounded=1;" vertex="1" parent="1">
                    <mxGeometry x="650.065390625" y="179" width="90" height="30" as="geometry"/>
                </mxCell>
                <mxCell id="10" value="" style="edgeStyle=elbowEdgeStyle;elbow=vertical;" edge="1" source="2" target="9" parent="1">
                    <mxGeometry relative="1" as="geometry"/>
                </mxCell>
                <mxCell id="11" value="Review Card" style="rounded=1;" vertex="1" parent="1">
                    <mxGeometry x="650.065390625" y="259" width="90" height="30" as="geometry"/>
                </mxCell>
                <mxCell id="12" value="" style="edgeStyle=elbowEdgeStyle;elbow=vertical;" edge="1" source="9" target="11" parent="1">
                    <mxGeometry relative="1" as="geometry"/>
                </mxCell>
                <mxCell id="13" value="User Card" style="rounded=1;" vertex="1" parent="1">
                    <mxGeometry x="452.2144531250001" y="259" width="80" height="30" as="geometry"/>
                </mxCell>
                <mxCell id="14" value="" style="edgeStyle=elbowEdgeStyle;elbow=vertical;" edge="1" source="7" target="13" parent="1">
                    <mxGeometry relative="1" as="geometry"/>
                </mxCell>
                <mxCell id="15" value="User Destinations" style="rounded=1;direction=west;" vertex="1" parent="1">
                    <mxGeometry x="544.995390625" y="179" width="101" height="30" as="geometry"/>
                </mxCell>
                <mxCell id="16" value="" style="edgeStyle=elbowEdgeStyle;elbow=vertical;" edge="1" source="7" target="15" parent="1">
                    <mxGeometry relative="1" as="geometry"/>
                </mxCell>
                <mxCell id="17" value="Orgchart" style="swimlane;html=1;startSize=20;horizontal=1;containerType=tree;glass=0;" vertex="1" parent="1">
                    <mxGeometry x="-840" y="770" width="1570" height="570" as="geometry"/>
                </mxCell>
                <UserObject label="App&lt;br&gt;&lt;br&gt;" name="Tessa Miller" position="CFO" location="Office 1" email="me@example.com" placeholders="1" link="https://www.draw.io" id="18">
                    <mxCell style="label;image=https://cdn3.iconfinder.com/data/icons/user-avatars-1/512/users-3-128.png;whiteSpace=wrap;html=1;rounded=0;glass=0;treeMoving=1;treeFolding=1;" vertex="1" parent="17">
                        <mxGeometry x="260" y="50" width="180" height="70" as="geometry"/>
                    </mxCell>
                </UserObject>
                <mxCell id="19" value="" style="endArrow=blockThin;endFill=1;fontSize=11;edgeStyle=elbowEdgeStyle;elbow=vertical;rounded=0;" edge="1" parent="17" source="18" target="20">
                    <mxGeometry relative="1" as="geometry"/>
                </mxCell>
                <UserObject label="All Users - Auth&lt;br&gt;&lt;font color=&quot;#666666&quot;&gt;&lt;i&gt;display user cards&lt;/i&gt;&lt;/font&gt;" name="Edward Morrison" position="Brand Manager" location="Office 2" email="me@example.com" placeholders="1" link="https://www.draw.io" id="20">
                    <mxCell style="label;image=https://cdn3.iconfinder.com/data/icons/user-avatars-1/512/users-10-3-128.png;whiteSpace=wrap;html=1;rounded=0;glass=0;treeFolding=1;treeMoving=1;" vertex="1" parent="17">
                        <mxGeometry x="40" y="180" width="180" height="80" as="geometry"/>
                    </mxCell>
                </UserObject>
                <mxCell id="21" value="" style="endArrow=blockThin;endFill=1;fontSize=11;edgeStyle=elbowEdgeStyle;elbow=vertical;rounded=0;" edge="1" parent="17" source="18" target="22">
                    <mxGeometry relative="1" as="geometry"/>
                </mxCell>
                <UserObject label="Reviews - Public&lt;br&gt;&lt;i&gt;&lt;font color=&quot;#666666&quot;&gt;City&lt;/font&gt;&lt;font color=&quot;#707070&quot;&gt;&lt;br&gt;Coun&lt;/font&gt;&lt;/i&gt;&lt;i&gt;&lt;font color=&quot;#707070&quot;&gt;try&lt;br&gt;Continent&lt;br&gt;Image&lt;br&gt;Review&lt;br&gt;Pro Tip&lt;br&gt;Length of Stay&lt;br&gt;Rating&lt;br&gt;User's Name&lt;/font&gt;&lt;/i&gt;" name="Evan Valet" position="HR Director" location="Office 4" email="me@example.com" placeholders="1" link="https://www.draw.io" id="22">
                    <mxCell style="label;image=https://cdn3.iconfinder.com/data/icons/user-avatars-1/512/users-9-2-128.png;whiteSpace=wrap;html=1;rounded=0;glass=0;treeFolding=1;treeMoving=1;" vertex="1" parent="17">
                        <mxGeometry x="260" y="160" width="180" height="170" as="geometry"/>
                    </mxCell>
                </UserObject>
                <mxCell id="23" value="" style="endArrow=blockThin;endFill=1;fontSize=11;edgeStyle=elbowEdgeStyle;elbow=vertical;rounded=0;" edge="1" parent="17" source="18" target="24">
                    <mxGeometry relative="1" as="geometry"/>
                </mxCell>
                <UserObject label="All Destinations - Public&lt;br&gt;&lt;font color=&quot;#666666&quot;&gt;&lt;i&gt;display destination cards&lt;br&gt;&lt;/i&gt;&lt;/font&gt;" name="Alison Donovan" position="System Admin" location="Office 3" email="me@example.com" placeholders="1" link="https://www.draw.io" id="24">
                    <mxCell style="label;image=https://cdn3.iconfinder.com/data/icons/user-avatars-1/512/users-2-128.png;whiteSpace=wrap;html=1;rounded=0;glass=0;" vertex="1" parent="17">
                        <mxGeometry x="490" y="180" width="180" height="80" as="geometry"/>
                    </mxCell>
                </UserObject>
                <mxCell id="30" value="" style="endArrow=blockThin;endFill=1;fontSize=11;edgeStyle=elbowEdgeStyle;elbow=vertical;rounded=0;" edge="1" target="31" source="22" parent="17">
                    <mxGeometry relative="1" as="geometry">
                        <mxPoint x="590" y="460" as="sourcePoint"/>
                    </mxGeometry>
                </mxCell>
                <UserObject label="Review Form - Auth&lt;br&gt;&lt;i&gt;&lt;font color=&quot;#666666&quot;&gt;City&lt;/font&gt;&lt;font color=&quot;#707070&quot;&gt;&lt;br&gt;&lt;/font&gt;&lt;/i&gt;&lt;i&gt;&lt;font color=&quot;#707070&quot;&gt;Image&lt;br&gt;Review&lt;br&gt;Pro Tip&lt;br&gt;Length of Stay&lt;br&gt;Rating&lt;br&gt;User's Name&lt;/font&gt;&lt;/i&gt;" name="Evan Valet" position="HR Director" location="Office 4" email="me@example.com" placeholders="1" link="https://www.draw.io" id="31">
                    <mxCell style="label;image=https://cdn3.iconfinder.com/data/icons/user-avatars-1/512/users-9-2-128.png;whiteSpace=wrap;html=1;rounded=0;glass=0;treeFolding=1;treeMoving=1;" vertex="1" parent="17">
                        <mxGeometry x="260" y="370" width="180" height="170" as="geometry"/>
                    </mxCell>
                </UserObject>
                <mxCell id="32" value="" style="edgeStyle=none;html=1;" edge="1" source="18" target="33" parent="17">
                    <mxGeometry relative="1" as="geometry"/>
                </mxCell>
                <UserObject label="Login/Logout - Auth&lt;br&gt;&lt;font color=&quot;#707070&quot;&gt;&lt;i&gt;username&lt;br&gt;password&lt;/i&gt;&lt;/font&gt;" name="Tessa Miller" position="CFO" location="Office 1" email="me@example.com" placeholders="1" link="https://www.draw.io" id="33">
                    <mxCell style="label;image=https://cdn3.iconfinder.com/data/icons/user-avatars-1/512/users-3-128.png;whiteSpace=wrap;html=1;rounded=0;glass=0;treeMoving=1;treeFolding=1;" vertex="1" parent="17">
                        <mxGeometry x="30" y="40" width="180" height="80" as="geometry"/>
                    </mxCell>
                </UserObject>
                <mxCell id="36" value="" style="endArrow=blockThin;endFill=1;fontSize=11;edgeStyle=elbowEdgeStyle;elbow=vertical;rounded=0;" edge="1" target="37" source="20" parent="17">
                    <mxGeometry relative="1" as="geometry">
                        <mxPoint x="410" y="880" as="sourcePoint"/>
                    </mxGeometry>
                </mxCell>
                <UserObject label="User Card - Auth&lt;br&gt;&lt;font color=&quot;#666666&quot;&gt;&lt;i&gt;Avatar&lt;br&gt;Name&lt;br&gt;age&lt;br&gt;location&lt;/i&gt;&lt;/font&gt;" name="Edward Morrison" position="Brand Manager" location="Office 2" email="me@example.com" placeholders="1" link="https://www.draw.io" id="37">
                    <mxCell style="label;image=https://cdn3.iconfinder.com/data/icons/user-avatars-1/512/users-10-3-128.png;whiteSpace=wrap;html=1;rounded=0;glass=0;treeFolding=1;treeMoving=1;" vertex="1" parent="17">
                        <mxGeometry x="40" y="300" width="180" height="80" as="geometry"/>
                    </mxCell>
                </UserObject>
                <mxCell id="38" value="" style="endArrow=blockThin;endFill=1;fontSize=11;edgeStyle=elbowEdgeStyle;elbow=vertical;rounded=0;" edge="1" target="39" source="24" parent="17">
                    <mxGeometry relative="1" as="geometry">
                        <mxPoint x="410" y="880" as="sourcePoint"/>
                    </mxGeometry>
                </mxCell>
                <UserObject label="Destination Card - Public&lt;br&gt;&lt;font style=&quot;font-style: italic&quot; color=&quot;#666666&quot;&gt;Country/&lt;/font&gt;&lt;font color=&quot;#666666&quot;&gt;&lt;font style=&quot;font-style: italic&quot;&gt;T&lt;/font&gt;&lt;i&gt;erritory&lt;br&gt;Continent&lt;br&gt;Flag&lt;br&gt;&lt;/i&gt;&lt;/font&gt;" name="Alison Donovan" position="System Admin" location="Office 3" email="me@example.com" placeholders="1" link="https://www.draw.io" id="39">
                    <mxCell style="label;image=https://cdn3.iconfinder.com/data/icons/user-avatars-1/512/users-2-128.png;whiteSpace=wrap;html=1;rounded=0;glass=0;" vertex="1" parent="17">
                        <mxGeometry x="490" y="300" width="180" height="80" as="geometry"/>
                    </mxCell>
                </UserObject>
                <mxCell id="40" value="" style="edgeStyle=none;html=1;" edge="1" source="18" target="41" parent="17">
                    <mxGeometry relative="1" as="geometry"/>
                </mxCell>
                <UserObject label="Home&lt;br&gt;&lt;font color=&quot;#666666&quot;&gt;&lt;i&gt;Logo&lt;br&gt;Signup Form&lt;br&gt;Login Form&lt;br&gt;Destinations&lt;/i&gt;&lt;/font&gt;" name="Tessa Miller" position="CFO" location="Office 1" email="me@example.com" placeholders="1" link="https://www.draw.io" id="41">
                    <mxCell style="label;image=https://cdn3.iconfinder.com/data/icons/user-avatars-1/512/users-3-128.png;whiteSpace=wrap;html=1;rounded=0;glass=0;treeMoving=1;treeFolding=1;" vertex="1" parent="17">
                        <mxGeometry x="520" y="30" width="180" height="85" as="geometry"/>
                    </mxCell>
                </UserObject>
                <mxCell id="42" value="" style="edgeStyle=none;html=1;" edge="1" target="43" source="33" parent="17">
                    <mxGeometry relative="1" as="geometry">
                        <mxPoint x="-200" y="863.0434782608695" as="sourcePoint"/>
                    </mxGeometry>
                </mxCell>
                <UserObject label="Signup Form&lt;br&gt;&lt;font color=&quot;#707070&quot;&gt;&lt;i&gt;Username&lt;br&gt;Name&lt;br&gt;Age&lt;br&gt;Location&lt;br&gt;Avatar&lt;/i&gt;&lt;/font&gt;" name="Tessa Miller" position="CFO" location="Office 1" email="me@example.com" placeholders="1" link="https://www.draw.io" id="43">
                    <mxCell style="label;image=https://cdn3.iconfinder.com/data/icons/user-avatars-1/512/users-3-128.png;whiteSpace=wrap;html=1;rounded=0;glass=0;treeMoving=1;treeFolding=1;" vertex="1" parent="17">
                        <mxGeometry x="-190" y="20" width="180" height="100" as="geometry"/>
                    </mxCell>
                </UserObject>
                <mxCell id="27" value="Nav Bar" style="whiteSpace=wrap;html=1;fontColor=#666666;" vertex="1" parent="1">
                    <mxGeometry x="295" y="89" width="70" height="40" as="geometry"/>
                </mxCell>
                <mxCell id="28" value="Home" style="whiteSpace=wrap;html=1;" vertex="1" parent="1">
                    <mxGeometry x="545" y="84" width="70" height="25" as="geometry"/>
                </mxCell>
                <UserObject label="NavBar" name="Tessa Miller" position="CFO" location="Office 1" email="me@example.com" placeholders="1" link="https://www.draw.io" id="45">
                    <mxCell style="label;image=https://cdn3.iconfinder.com/data/icons/user-avatars-1/512/users-3-128.png;whiteSpace=wrap;html=1;rounded=0;glass=0;treeMoving=1;treeFolding=1;" vertex="1" parent="1">
                        <mxGeometry x="-550" y="720" width="180" height="70" as="geometry"/>
                    </mxCell>
                </UserObject>
                <mxCell id="44" value="" style="edgeStyle=none;html=1;" edge="1" source="18" target="45" parent="1">
                    <mxGeometry relative="1" as="geometry"/>
                </mxCell>
            </root>
        </mxGraphModel>
    </diagram>
</mxfile>